<svg width="223" height="189" viewBox="0 0 223 189" fill="none" xmlns="http://www.w3.org/2000/svg">
<path d="M211.431 173.136L205.166 188.531L222.457 187.511L214.426 172.959L211.431 173.136ZM179.632 92.8636L180.696 91.8063L179.632 92.8636ZM108.585 83.4018L107.823 82.1098L108.585 83.4018ZM104.664 110.418L104.399 111.894L104.664 110.418ZM132.16 83.6093L133.561 84.1453L132.16 83.6093ZM100.322 23.4511L100.87 22.0548L100.322 23.4511ZM27.8998 11.3733L28.0762 9.88374L27.8998 11.3733ZM0.072495 11.5341L16.2965 17.5987L13.4367 0.515965L0.072495 11.5341ZM214.511 174.414C211.95 143.958 203.816 115.073 180.696 91.8063L178.568 93.9209C200.993 116.488 208.991 144.571 211.522 174.666L214.511 174.414ZM180.696 91.8063C172.502 83.5599 159.34 78.1822 145.819 76.3143C132.298 74.4463 118.106 76.0451 107.823 82.1098L109.347 84.6939C118.857 79.0854 132.299 77.4749 145.408 79.286C158.518 81.0971 170.982 86.287 178.568 93.9209L180.696 91.8063ZM107.823 82.1098C105.479 83.4922 103.055 85.7824 100.989 88.4314C98.9172 91.0872 97.1325 94.1973 96.1345 97.2859C95.1455 100.347 94.8671 103.59 96.1181 106.342C97.4093 109.183 100.155 111.133 104.399 111.894L104.929 108.942C101.36 108.301 99.6222 106.802 98.8492 105.101C98.0359 103.312 98.1126 100.921 98.9892 98.2083C99.8568 95.5232 101.448 92.7201 103.354 90.2764C105.265 87.8258 107.42 85.8303 109.347 84.6939L107.823 82.1098ZM104.399 111.894C113.147 113.465 119.356 109.43 123.857 103.616C128.297 97.882 131.229 90.2398 133.561 84.1453L130.759 83.0732C128.394 89.255 125.605 96.4584 121.485 101.78C117.426 107.023 112.236 110.254 104.929 108.942L104.399 111.894ZM133.561 84.1453C144.152 56.4659 125.553 31.7432 100.87 22.0548L99.774 24.8473C123.572 34.1885 140.541 57.5097 130.759 83.0732L133.561 84.1453ZM100.87 22.0548C77.412 12.8468 52.1845 12.7394 28.0762 9.88374L27.7233 12.8629C52.2927 15.7732 76.7948 15.8274 99.774 24.8473L100.87 22.0548ZM28.0762 9.88374C25.7922 9.6132 23.4313 9.19773 20.9701 8.79217C18.5296 8.39004 16.0095 8.00124 13.5006 7.80952L13.2721 10.8008C15.6404 10.9818 18.0493 11.3513 20.4823 11.7523C22.8946 12.1498 25.3518 12.582 27.7233 12.8629L28.0762 9.88374Z" fill="#E6B4BF"/>
</svg>
