<svg width="217" height="195" viewBox="0 0 217 195" fill="none" xmlns="http://www.w3.org/2000/svg">
<path d="M10.8505 15.2235L17.6716 0.0662462L0.355486 0.455727L7.85123 15.2909L10.8505 15.2235ZM39.7056 96.6L38.6038 97.6178L39.7056 96.6ZM110.361 108.642L111.076 109.961L110.361 108.642ZM115.264 81.7868L115.582 80.321L115.264 81.7868ZM86.8094 107.577L85.4289 106.99L86.8094 107.577ZM116.436 168.854L115.837 170.23L116.436 168.854ZM188.37 183.561L188.14 185.043L188.37 183.561ZM216.185 184.413L200.193 177.762L202.429 194.938L216.185 184.413ZM7.81891 13.8332C9.26951 44.3629 16.3467 73.5251 38.6038 97.6178L40.8074 95.5821C19.219 72.2132 12.2489 43.8579 10.8155 13.6909L7.81891 13.8332ZM38.6038 97.6178C46.4925 106.157 59.45 112.01 72.8939 114.37C86.3379 116.729 100.578 115.647 111.076 109.961L109.647 107.323C99.9389 112.582 86.4471 113.702 73.4124 111.415C60.3778 109.127 48.1102 103.487 40.8074 95.5821L38.6038 97.6178ZM111.076 109.961C113.469 108.665 115.975 106.465 118.136 103.893C120.302 101.314 122.199 98.2711 123.309 95.2208C124.409 92.1981 124.805 88.9667 123.655 86.1708C122.468 83.2851 119.795 81.2369 115.582 80.321L114.945 83.2526C118.488 84.0228 120.17 85.5842 120.881 87.312C121.628 89.1297 121.465 91.5159 120.49 94.1951C119.525 96.8468 117.833 99.5901 115.839 101.963C113.84 104.342 111.614 106.258 109.647 107.323L111.076 109.961ZM115.582 80.321C106.897 78.433 100.545 82.2394 95.8353 87.885C91.1896 93.4541 87.9813 100.984 85.4289 106.99L88.1899 108.163C90.7788 102.072 93.8279 94.9747 98.139 89.8068C102.386 84.7154 107.691 81.6755 114.945 83.2526L115.582 80.321ZM85.4289 106.99C73.8369 134.265 91.524 159.649 115.837 170.23L117.034 167.479C93.5927 157.277 77.484 133.354 88.1899 108.163L85.4289 106.99ZM115.837 170.23C138.945 180.286 164.151 181.312 188.14 185.043L188.601 182.079C164.154 178.276 139.67 177.33 117.034 167.479L115.837 170.23ZM188.14 185.043C190.412 185.397 192.757 185.898 195.201 186.393C197.626 186.883 200.13 187.364 202.63 187.647L202.968 184.666C200.607 184.399 198.214 183.941 195.797 183.452C193.4 182.967 190.961 182.446 188.601 182.079L188.14 185.043Z" fill="#E6B4BF"/>
</svg>
